<svg xmlns="http://www.w3.org/2000/svg" version="1.1" xmlns:xlink="http://www.w3.org/1999/xlink" xmlns:svgjs="http://svgjs.dev/svgjs" viewBox="0 0 9.874717762933614 4.288478362209529"><g transform="matrix(1,0,0,1,1.6328239693574318,1.7627391811047644)"><g transform="matrix(1,0,0,1,0,0)"><g clip-path="url(#SvgjsClipPath1002)"><path d=" M -1.0999999999999996 -1.2299152117473322 L 7.70906982421875 -1.2299152117473322 L 7.70906982421875 1.992915211747332 L -1.0999999999999996 1.992915211747332 Z" fill="#facf0e" transform="matrix(1,0,0,1,0,0)" fill-rule="nonzero"></path></g></g><g transform="matrix(1,0,0,1,0,0)"><path d=" M 0.5815 0.439 Q 0.615 0.482 0.615 0.55 Q 0.615 0.669 0.547 0.716 Q 0.47900000000000004 0.763 0.385 0.763 L 0.136 0.763 Q 0.11 0.763 0.0925 0.7455 Q 0.075 0.728 0.075 0.702 L 0.075 0.124 Q 0.075 0.09799999999999998 0.0925 0.08050000000000002 Q 0.11 0.06299999999999994 0.136 0.06299999999999994 L 0.388 0.06299999999999994 Q 0.578 0.06299999999999994 0.578 0.241 Q 0.578 0.286 0.5565 0.3205 Q 0.535 0.355 0.495 0.375 Q 0.548 0.396 0.5815 0.439 M 0.4275 0.2015 Q 0.40700000000000003 0.18100000000000005 0.37 0.18100000000000005 L 0.20500000000000002 0.18100000000000005 L 0.20500000000000002 0.337 L 0.373 0.337 Q 0.403 0.337 0.4255 0.317 Q 0.448 0.297 0.448 0.263 Q 0.448 0.22199999999999998 0.4275 0.2015 M 0.4585 0.623 Q 0.485 0.598 0.485 0.55 Q 0.485 0.491 0.454 0.47300000000000003 Q 0.423 0.455 0.378 0.455 L 0.20500000000000002 0.455 L 0.20500000000000002 0.648 L 0.385 0.648 Q 0.432 0.648 0.4585 0.623 M 1.048529296875 0.235 Q 1.0690292968750001 0.252 1.0690292968750001 0.275 Q 1.0690292968750001 0.306 1.0530292968750001 0.3215 Q 1.0370292968750001 0.337 1.0150292968749999 0.337 Q 1.000029296875 0.337 0.9810292968750001 0.33 Q 0.978029296875 0.329 0.967529296875 0.326 Q 0.957029296875 0.323 0.945029296875 0.323 Q 0.919029296875 0.323 0.895029296875 0.339 Q 0.871029296875 0.355 0.855529296875 0.3875 Q 0.840029296875 0.42 0.840029296875 0.465 L 0.840029296875 0.702 Q 0.840029296875 0.728 0.823029296875 0.7455 Q 0.806029296875 0.763 0.780029296875 0.763 Q 0.754029296875 0.763 0.737029296875 0.7455 Q 0.720029296875 0.728 0.720029296875 0.702 L 0.720029296875 0.289 Q 0.720029296875 0.263 0.737029296875 0.24550000000000005 Q 0.754029296875 0.22799999999999998 0.780029296875 0.22799999999999998 Q 0.806029296875 0.22799999999999998 0.823029296875 0.24550000000000005 Q 0.840029296875 0.263 0.840029296875 0.289 L 0.840029296875 0.302 Q 0.863029296875 0.261 0.906029296875 0.23950000000000005 Q 0.949029296875 0.21799999999999997 0.998029296875 0.21799999999999997 Q 1.028029296875 0.21799999999999997 1.048529296875 0.235 M 1.25005029296875 0.7455 Q 1.2330502929687501 0.763 1.20705029296875 0.763 Q 1.18105029296875 0.763 1.16405029296875 0.7455 Q 1.14705029296875 0.728 1.14705029296875 0.702 L 1.14705029296875 0.289 Q 1.14705029296875 0.263 1.16405029296875 0.24550000000000005 Q 1.18105029296875 0.22799999999999998 1.20705029296875 0.22799999999999998 Q 1.2330502929687501 0.22799999999999998 1.25005029296875 0.24550000000000005 Q 1.26705029296875 0.263 1.26705029296875 0.289 L 1.26705029296875 0.702 Q 1.26705029296875 0.728 1.25005029296875 0.7455 M 1.15805029296875 0.15200000000000002 Q 1.14405029296875 0.14100000000000001 1.14405029296875 0.11299999999999999 L 1.14405029296875 0.09399999999999997 Q 1.14405029296875 0.06599999999999995 1.15905029296875 0.05500000000000005 Q 1.17405029296875 0.04400000000000004 1.20705029296875 0.04400000000000004 Q 1.24205029296875 0.04400000000000004 1.25605029296875 0.05500000000000005 Q 1.27005029296875 0.06599999999999995 1.27005029296875 0.09399999999999997 L 1.27005029296875 0.11299999999999999 Q 1.27005029296875 0.14200000000000002 1.25555029296875 0.15249999999999997 Q 1.24105029296875 0.16300000000000003 1.20605029296875 0.16300000000000003 Q 1.17205029296875 0.16300000000000003 1.15805029296875 0.15200000000000002 M 1.7600732421875 0.24450000000000005 Q 1.8120732421875 0.271 1.8120732421875 0.315 Q 1.8120732421875 0.337 1.7990732421875 0.3535 Q 1.7860732421875 0.37 1.7650732421875 0.37 Q 1.7490732421875 0.37 1.7390732421875001 0.3655 Q 1.7290732421875 0.361 1.7195732421875 0.3535 Q 1.7100732421875 0.34600000000000003 1.7010732421875 0.341 Q 1.6910732421875 0.336 1.6715732421875 0.332 Q 1.6520732421875 0.328 1.6400732421875 0.328 Q 1.5650732421875 0.328 1.5225732421875 0.3745 Q 1.4800732421875 0.421 1.4800732421875 0.496 Q 1.4800732421875 0.5680000000000001 1.5230732421875 0.6155 Q 1.5660732421875 0.663 1.6330732421875 0.663 Q 1.6820732421875 0.663 1.7060732421875 0.651 Q 1.7120732421875 0.648 1.7225732421875 0.6405000000000001 Q 1.7330732421875 0.633 1.7420732421875 0.629 Q 1.7510732421875 0.625 1.7640732421875 0.625 Q 1.7890732421875 0.625 1.8035732421875 0.641 Q 1.8180732421874999 0.657 1.8180732421874999 0.682 Q 1.8180732421874999 0.706 1.7900732421875 0.727 Q 1.7620732421875 0.748 1.7160732421875 0.7605000000000001 Q 1.6700732421875 0.773 1.6180732421875 0.773 Q 1.5410732421875 0.773 1.4825732421875 0.737 Q 1.4240732421875 0.7010000000000001 1.3920732421875 0.6375 Q 1.3600732421875 0.5740000000000001 1.3600732421875 0.496 Q 1.3600732421875 0.415 1.3935732421875 0.352 Q 1.4270732421875 0.289 1.4870732421875 0.25349999999999995 Q 1.5470732421875 0.21799999999999997 1.6230732421875 0.21799999999999997 Q 1.7080732421875 0.21799999999999997 1.7600732421875 0.24450000000000005 M 2.369087890625 0.7030000000000001 Q 2.369087890625 0.728 2.349587890625 0.745 Q 2.330087890625 0.762 2.308087890625 0.762 Q 2.282087890625 0.762 2.264087890625 0.742 L 2.0840878906249998 0.552 L 2.035087890625 0.597 L 2.035087890625 0.702 Q 2.035087890625 0.728 2.018087890625 0.7455 Q 2.001087890625 0.763 1.975087890625 0.763 Q 1.949087890625 0.763 1.932087890625 0.7455 Q 1.915087890625 0.728 1.915087890625 0.702 L 1.915087890625 0.08399999999999996 Q 1.915087890625 0.05800000000000005 1.932087890625 0.04049999999999998 Q 1.949087890625 0.02300000000000002 1.975087890625 0.02300000000000002 Q 2.001087890625 0.02300000000000002 2.018087890625 0.04049999999999998 Q 2.035087890625 0.05800000000000005 2.035087890625 0.08399999999999996 L 2.035087890625 0.454 L 2.249087890625 0.247 Q 2.268087890625 0.22799999999999998 2.293087890625 0.22799999999999998 Q 2.315087890625 0.22799999999999998 2.332587890625 0.24650000000000005 Q 2.350087890625 0.265 2.350087890625 0.284 Q 2.350087890625 0.308 2.3260878906249998 0.329 L 2.175087890625 0.468 L 2.350087890625 0.658 Q 2.369087890625 0.678 2.369087890625 0.7030000000000001 M 2.5110576171875 0.06299999999999994 L 2.5420576171875 0.06299999999999994 Q 2.5640576171875 0.06299999999999994 2.5755576171875 0.07250000000000001 Q 2.5870576171875 0.08199999999999996 2.5870576171875 0.09899999999999998 Q 2.5870576171875 0.10899999999999999 2.5830576171875 0.12 L 2.5150576171875 0.329 Q 2.5030576171875 0.362 2.4720576171875 0.362 Q 2.4560576171875 0.362 2.4485576171875 0.3515 Q 2.4410576171875 0.341 2.4430576171875 0.321 L 2.4590576171875 0.11099999999999999 Q 2.4630576171875 0.06299999999999994 2.5110576171875 0.06299999999999994 M 3.29603271484375 0.5945 Q 3.2520327148437502 0.677 3.17453271484375 0.725 Q 3.09703271484375 0.773 3.00003271484375 0.773 Q 2.90303271484375 0.773 2.82553271484375 0.725 Q 2.74803271484375 0.677 2.70453271484375 0.5945 Q 2.66103271484375 0.512 2.66103271484375 0.413 Q 2.66103271484375 0.314 2.70453271484375 0.23150000000000004 Q 2.74803271484375 0.14900000000000002 2.82553271484375 0.10099999999999998 Q 2.90303271484375 0.05300000000000005 3.00003271484375 0.05300000000000005 Q 3.09703271484375 0.05300000000000005 3.17453271484375 0.10099999999999998 Q 3.2520327148437502 0.14900000000000002 3.29603271484375 0.23150000000000004 Q 3.34003271484375 0.314 3.34003271484375 0.413 Q 3.34003271484375 0.512 3.29603271484375 0.5945 M 3.1830327148437503 0.2915 Q 3.15603271484375 0.237 3.10803271484375 0.20499999999999996 Q 3.06003271484375 0.17300000000000004 3.00003271484375 0.17300000000000004 Q 2.93903271484375 0.17300000000000004 2.89153271484375 0.20450000000000002 Q 2.84403271484375 0.236 2.81753271484375 0.291 Q 2.79103271484375 0.34600000000000003 2.79103271484375 0.413 Q 2.79103271484375 0.48 2.81753271484375 0.535 Q 2.84403271484375 0.59 2.89153271484375 0.6214999999999999 Q 2.93903271484375 0.653 3.00003271484375 0.653 Q 3.06003271484375 0.653 3.10803271484375 0.621 Q 3.15603271484375 0.589 3.1830327148437503 0.5345 Q 3.21003271484375 0.48 3.21003271484375 0.413 Q 3.21003271484375 0.34600000000000003 3.1830327148437503 0.2915 M 4.1965341796875 0.10950000000000004 Q 4.2640341796875 0.15600000000000003 4.2995341796875 0.23550000000000004 Q 4.3350341796875 0.315 4.3350341796875 0.413 Q 4.3350341796875 0.511 4.2995341796875 0.5905 Q 4.2640341796875 0.67 4.1965341796875 0.7165 Q 4.1290341796875 0.763 4.0350341796875 0.763 L 3.7960341796875 0.763 Q 3.7700341796875 0.763 3.7525341796875 0.7455 Q 3.7350341796875 0.728 3.7350341796875 0.702 L 3.7350341796875 0.124 Q 3.7350341796875 0.09799999999999998 3.7525341796875 0.08050000000000002 Q 3.7700341796875 0.06299999999999994 3.7960341796875 0.06299999999999994 L 4.0350341796875 0.06299999999999994 Q 4.1290341796875 0.06299999999999994 4.1965341796875 0.10950000000000004 M 4.1600341796875 0.5815 Q 4.2050341796875 0.515 4.2050341796875 0.413 Q 4.2050341796875 0.311 4.1595341796875 0.24450000000000005 Q 4.1140341796875 0.17800000000000005 4.0250341796875 0.17800000000000005 L 3.8600341796875 0.17800000000000005 L 3.8600341796875 0.648 L 4.0250341796875 0.648 Q 4.1150341796875 0.648 4.1600341796875 0.5815 M 4.909056640625 0.522 Q 4.891056640625 0.537 4.867056640625 0.537 L 4.537056640625 0.537 Q 4.549056640625 0.596 4.592056640625 0.6295 Q 4.635056640625 0.663 4.689056640625 0.663 Q 4.730056640625 0.663 4.753056640625 0.6555 Q 4.776056640625 0.648 4.789556640625 0.6395 Q 4.803056640625 0.631 4.808056640625 0.628 Q 4.826056640625 0.619 4.842056640625 0.619 Q 4.863056640625 0.619 4.878056640625 0.634 Q 4.893056640625 0.649 4.893056640625 0.669 Q 4.893056640625 0.696 4.865056640625 0.718 Q 4.837056640625 0.741 4.790056640625 0.757 Q 4.743056640625 0.773 4.695056640625 0.773 Q 4.611056640625 0.773 4.548556640625 0.738 Q 4.486056640625 0.7030000000000001 4.452056640625 0.6415 Q 4.418056640625 0.5800000000000001 4.418056640625 0.503 Q 4.418056640625 0.417 4.454056640625 0.352 Q 4.490056640625 0.287 4.549056640625 0.25249999999999995 Q 4.608056640625 0.21799999999999997 4.675056640625 0.21799999999999997 Q 4.741056640625 0.21799999999999997 4.799556640625 0.254 Q 4.858056640625 0.29 4.893056640625 0.351 Q 4.928056640625 0.412 4.928056640625 0.483 Q 4.9270566406250005 0.507 4.909056640625 0.522 M 4.538056640625 0.437 L 4.800056640625 0.437 L 4.800056640625 0.43 Q 4.796056640625 0.388 4.759056640625 0.358 Q 4.722056640625 0.328 4.675056640625 0.328 Q 4.559056640625 0.328 4.538056640625 0.437 M 4.654556640625 0.18500000000000005 Q 4.643056640625 0.17600000000000005 4.644056640625 0.16100000000000003 Q 4.644056640625 0.15200000000000002 4.650056640625 0.14200000000000002 L 4.708056640625 0.040000000000000036 Q 4.718056640625 0.02200000000000002 4.732056640625 0.01100000000000001 Q 4.7460566406249995 0 4.763056640625 0 Q 4.790056640625 0 4.803556640625 0.014000000000000012 Q 4.817056640625 0.028000000000000025 4.816056640625 0.050000000000000044 Q 4.814056640625 0.07299999999999995 4.797056640625 0.09299999999999997 L 4.721056640625 0.17700000000000005 Q 4.705056640625 0.19399999999999995 4.676056640625 0.19399999999999995 Q 4.666056640625 0.19399999999999995 4.654556640625 0.18500000000000005 M 5.43007373046875 0.25349999999999995 Q 5.48607373046875 0.289 5.51857373046875 0.352 Q 5.55107373046875 0.415 5.55107373046875 0.495 Q 5.55107373046875 0.575 5.51907373046875 0.6385000000000001 Q 5.48707373046875 0.702 5.43157373046875 0.7375 Q 5.37607373046875 0.773 5.30907373046875 0.773 Q 5.26107373046875 0.773 5.21857373046875 0.7535000000000001 Q 5.17607373046875 0.734 5.14807373046875 0.706 L 5.14807373046875 0.902 Q 5.14807373046875 0.928 5.13107373046875 0.9455 Q 5.11407373046875 0.9630000000000001 5.08807373046875 0.9630000000000001 Q 5.06207373046875 0.9630000000000001 5.04507373046875 0.946 Q 5.02807373046875 0.929 5.02807373046875 0.902 L 5.02807373046875 0.289 Q 5.02807373046875 0.263 5.04507373046875 0.24550000000000005 Q 5.06207373046875 0.22799999999999998 5.08807373046875 0.22799999999999998 Q 5.11407373046875 0.22799999999999998 5.13107373046875 0.24550000000000005 Q 5.14807373046875 0.263 5.14807373046875 0.289 L 5.14807373046875 0.293 Q 5.17207373046875 0.263 5.21507373046875 0.24050000000000005 Q 5.25807373046875 0.21799999999999997 5.30507373046875 0.21799999999999997 Q 5.37407373046875 0.21799999999999997 5.43007373046875 0.25349999999999995 M 5.39507373046875 0.615 Q 5.43607373046875 0.567 5.43607373046875 0.495 Q 5.43607373046875 0.423 5.39557373046875 0.3755 Q 5.35507373046875 0.328 5.29007373046875 0.328 Q 5.2250737304687505 0.328 5.18407373046875 0.3755 Q 5.14307373046875 0.423 5.14307373046875 0.495 Q 5.14307373046875 0.567 5.18407373046875 0.615 Q 5.2250737304687505 0.663 5.29007373046875 0.663 Q 5.35407373046875 0.663 5.39507373046875 0.615 M 6.1290595703125 0.6395 Q 6.0930595703125 0.7030000000000001 6.0305595703125 0.738 Q 5.9680595703125 0.773 5.8930595703125 0.773 Q 5.8170595703125 0.773 5.7550595703125 0.738 Q 5.6930595703125 0.7030000000000001 5.6570595703125 0.6395 Q 5.6210595703125 0.5760000000000001 5.6210595703125 0.496 Q 5.6210595703125 0.416 5.6570595703125 0.3525 Q 5.6930595703125 0.289 5.7550595703125 0.25349999999999995 Q 5.8170595703125 0.21799999999999997 5.8930595703125 0.21799999999999997 Q 5.9680595703125 0.21799999999999997 6.0305595703125 0.25349999999999995 Q 6.0930595703125 0.289 6.1290595703125 0.3525 Q 6.1650595703125 0.416 6.1650595703125 0.496 Q 6.1650595703125 0.5760000000000001 6.1290595703125 0.6395 M 6.0245595703125 0.40850000000000003 Q 6.0040595703125 0.37 5.9695595703125 0.349 Q 5.9350595703125 0.328 5.8930595703125 0.328 Q 5.8510595703125 0.328 5.8165595703125 0.349 Q 5.7820595703125 0.37 5.7615595703125 0.40850000000000003 Q 5.7410595703125 0.447 5.7410595703125 0.496 Q 5.7410595703125 0.545 5.7615595703125 0.583 Q 5.7820595703125 0.621 5.8165595703125 0.642 Q 5.8510595703125 0.663 5.8930595703125 0.663 Q 5.9350595703125 0.663 5.9695595703125 0.642 Q 6.0040595703125 0.621 6.0245595703125 0.583 Q 6.0450595703125 0.545 6.0450595703125 0.496 Q 6.0450595703125 0.447 6.0245595703125 0.40850000000000003 M 6.5485732421875 0.6635 Q 6.5600732421875 0.677 6.5600732421875 0.6990000000000001 Q 6.5600732421875 0.726 6.5305732421875 0.7445 Q 6.5010732421875 0.763 6.4640732421875 0.763 Q 6.4020732421875 0.763 6.3595732421875 0.7365 Q 6.3170732421875 0.71 6.3170732421875 0.624 L 6.3170732421875 0.348 L 6.2710732421875 0.348 Q 6.2470732421875 0.348 6.2310732421875 0.332 Q 6.2150732421875 0.316 6.2150732421875 0.292 Q 6.2150732421875 0.269 6.2310732421875 0.25349999999999995 Q 6.2470732421875 0.238 6.2710732421875 0.238 L 6.3170732421875 0.238 L 6.3170732421875 0.17400000000000004 Q 6.3170732421875 0.14800000000000002 6.3345732421875 0.13049999999999995 Q 6.3520732421875 0.11299999999999999 6.3780732421875 0.11299999999999999 Q 6.4030732421875 0.11299999999999999 6.4200732421875 0.13049999999999995 Q 6.4370732421875 0.14800000000000002 6.4370732421875 0.17400000000000004 L 6.4370732421875 0.238 L 6.5080732421875 0.238 Q 6.5320732421875 0.238 6.5480732421875 0.254 Q 6.5640732421875 0.27 6.5640732421875 0.294 Q 6.5640732421875 0.317 6.5480732421875 0.3325 Q 6.5320732421875 0.348 6.5080732421875 0.348 L 6.4370732421875 0.348 L 6.4370732421875 0.619 Q 6.4370732421875 0.64 6.4480732421875 0.6495 Q 6.4590732421875 0.659 6.4780732421875005 0.659 Q 6.4860732421875 0.659 6.5000732421875 0.655 Q 6.5120732421875 0.65 6.5230732421875 0.65 Q 6.5370732421875 0.65 6.5485732421875 0.6635" fill="#202020" fill-rule="nonzero"></path></g><g transform="matrix(1,0,0,1,0,0)"></g></g><defs><clipPath id="SvgjsClipPath1002"><path d=" M -1.0999999999999996 -1.2299152117473322 h 8.80906982421875 v 3.2228304234946643 h -8.80906982421875 Z"></path></clipPath></defs></svg>